<svg clip-rule="evenodd" fill-rule="evenodd" stroke-linejoin="round" stroke-miterlimit="2" viewBox="0 0 32 32" xmlns="http://www.w3.org/2000/svg" xmlns:xlink="http://www.w3.org/1999/xlink"><clipPath id="a"><path clip-rule="evenodd" d="m-0 0h32v32h-32z"/></clipPath><clipPath id="b"><path clip-rule="evenodd" d="m30 7c0-.552-.448-1-1-1-4.355 0-21.645 0-26 0-.552 0-1 .448-1 1v18c0 .552.448 1 1 1h26c.552 0 1-.448 1-1 0-3.414 0-14.586 0-18z"/></clipPath><path d="m-0 0h32v32h-32z" fill="none"/><g clip-path="url(#a)"><path d="m32 7c0-.796-.316-1.559-.879-2.121-.562-.563-1.325-.879-2.121-.879h-26c-.796 0-1.559.316-2.121.879-.563.562-.879 1.325-.879 2.121v18c0 .796.316 1.559.879 2.121.562.563 1.325.879 2.121.879h26c.796 0 1.559-.316 2.121-.879.563-.562.879-1.325.879-2.121z"/><path d="m30 7c0-.552-.448-1-1-1-4.355 0-21.645 0-26 0-.552 0-1 .448-1 1v18c0 .552.448 1 1 1h26c.552 0 1-.448 1-1 0-3.414 0-14.586 0-18z"/><g clip-path="url(#b)"><path d="m1 13h30v6h-30z" fill="#fff"/><path d="m1 18h30v5h-30z" fill="#f0a6b7"/><path d="m1 22h30v5h-30z" fill="#5dccfb"/><path d="m1 9h30v5h-30z" fill="#f0a6b7"/><path d="m1 5h30v5h-30z" fill="#5dccfb"/></g></g></svg>